#!OML:ASF F:\VICON\USERDATA\INSTALL\rory3\rory3.ASF
:FULLY-SPECIFIED
:DEGREES
286
root 1.09303 17.2189 -16.8406 2.21979 0.75866 0.0627946
lowerback 11.4084 -1.16719 -2.13982
upperback 0.509723 -1.67723 2.49161
thorax -5.73141 -0.735691 4.10193
lowerneck -17.3385 -3.0264 -9.78699
upperneck 13.6953 -2.80431 6.53595
head 7.28007 -1.26118 3.43038
rclavicle 3.18055e-015 -5.56597e-015
rhumerus -34.84 5.65345 -80.2231
rradius 56.4482
rwrist -2.82082
rhand -14.0882 18.6715
rfingers 7.12502
rthumb 12.044 -10.9619
lclavicle 3.18055e-015 -5.56597e-015
lhumerus -26.0997 -4.05088 79.5298
lradius 50.6454
lwrist 2.46234
lhand -24.5522 20.0622
lfingers 7.12502
lthumb 1.94405 50.0331
rfemur -15.981 -1.40734 23.4449
rtibia 43.039
rfoot -16.6616 -7.41479
rtoes -5.97509
lfemur -18.5407 1.45958 -19.2032
ltibia 42.3717
lfoot -17.6514 -3.33845
ltoes -7.76587
287
root 1.07432 17.0386 -16.9096 1.83343 0.751368 0.553709
lowerback 12.365 -1.05326 -2.80895
upperback 0.817508 -1.64002 2.33387
thorax -5.9301 -0.700991 4.33618
lowerneck -18.2044 -3.05966 -9.81323
upperneck 13.8731 -2.78804 6.68001
head 7.48683 -1.22904 3.4854
rclavicle 1.61016e-014 -1.39149e-014
rhumerus -33.5454 4.76806 -80.1444
rradius 55.3887
rwrist -1.55998
rhand -13.9104 19.0462
rfingers 7.12502
rthumb 12.2155 -10.577
lclavicle 1.61016e-014 -1.39149e-014
lhumerus -24.8542 -3.29974 79.3616
lradius 50.4106
lwrist 1.60393
lhand -23.8834 19.5217
lfingers 7.12502
lthumb 2.58993 49.4858
rfemur -17.3825 -1.51715 23.3962
rtibia 46.1919
rfoot -18.6925 -9.0408
rtoes -4.19619
lfemur -19.8253 1.63896 -19.8557
ltibia 45.2642
lfoot -19.4872 -2.81938
ltoes -5.99161
288
root 1.05247 16.8465 -16.9776 1.64902 0.819822 1.08515
lowerback 12.9719 -0.957037 -3.52454
upperback 1.05322 -1.63851 2.15717
thorax -6.00393 -0.685365 4.57157
lowerneck -18.5299 -3.10082 -9.95326
upperneck 13.7289 -2.82505 6.98843
head 7.50462 -1.21804 3.6058
rclavicle 2.74323e-014 -9.14409e-015
rhumerus -32.4018 3.59081 -80.0565
rradius 53.9856
rwrist -0.445667
rhand -13.8058 19.7816
rfingers 7.12502
rthumb 12.3164 -9.8357
lclavicle 2.74323e-014 -9.14409e-015
lhumerus -23.8351 -2.43065 79.272
lradius 49.8883
lwrist 1.03216
lhand -24.3953 18.2903
lfingers 7.12502
lthumb 2.09555 48.2598
rfemur -19.1726 -1.70531 23.3044
rtibia 49.3541
rfoot -20.179 -10.8161
rtoes -5.85567
lfemur -21.5685 1.68979 -20.5955
ltibia 48.104
lfoot -20.8205 -1.53014
ltoes -9.30247
289
root 1.03974 16.6827 -17.0295 1.20716 0.719419 0.946752
lowerback 13.6186 -0.916855 -3.47481
upperback 1.37462 -1.59548 2.1356
thorax -6.02811 -0.670461 4.52769
lowerneck -18.6935 -3.07685 -9.97695
upperneck 13.4088 -2.78914 7.16418
head 7.42668 -1.17955 3.66919
rclavicle -1.33186e-014 -6.36111e-015
rhumerus -31.3493 2.20641 -80.0255
rradius 52.2214
rwrist 0.774899
rhand -13.864 20.3497
rfingers 7.12502
rthumb 12.2603 -9.27087
lclavicle -1.33186e-014 -6.36111e-015
lhumerus -22.9864 -1.1389 79.232
lradius 48.9415
lwrist 0.476977
lhand -25.0936 18.0632
lfingers 7.12502
lthumb 1.42117 48.0383
rfemur -20.53 -1.58566 23.8706
rtibia 52.1676
rfoot -21.4006 -12.6585
rtoes -7.38871
lfemur -22.6349 1.71108 -20.4937
ltibia 50.7508
lfoot -21.8566 0.211261
ltoes -10.2186
290
root 1.04331 16.538 -17.0729 0.638291 0.491649 0.379055
lowerback 14.2648 -0.907228 -2.77804
upperback 1.75788 -1.48616 2.198
thorax -6.00549 -0.639569 4.18974
lowerneck -18.6326 -3.05127 -10.042
upperneck 12.7291 -2.73606 7.27313
head 7.19127 -1.14202 3.71426
rclavicle 1.70955e-014 -2.10712e-014
rhumerus -30.3805 0.742065 -79.969
rradius 50.3063
rwrist 2.00775
rhand -14.3214 20.2588
rfingers 7.12502
rthumb 11.8192 -9.3877
lclavicle 1.70955e-014 -2.10712e-014
lhumerus -22.3019 0.513491 79.2786
lradius 47.9593
lwrist -0.0995499
lhand -25.0728 20.5707
lfingers 7.12502
lthumb 1.44127 50.5456
rfemur -21.3099 -1.39834 24.8069
rtibia 54.4999
rfoot -22.2566 -14.0967
rtoes -7.16444
lfemur -23.2997 1.76541 -19.9307
ltibia 52.9488
lfoot -23.1215 0.915178
ltoes -9.53499
291
root 1.05688 16.4056 -17.1085 0.215708 0.29401 -0.0177611
lowerback 14.6277 -0.886188 -2.13664
upperback 2.11348 -1.36127 2.24511
thorax -5.8529 -0.600579 3.85407
lowerneck -18.4605 -3.10263 -10.2585
upperneck 11.9403 -2.75137 7.36373
head 6.91146 -1.14731 3.76864
rclavicle 8.44835e-015 -1.11319e-014
rhumerus -29.5751 -0.949895 -79.7536
rradius 48.3783
rwrist 3.20713
rhand -15.0397 19.4494
rfingers 7.12502
rthumb 11.1265 -10.2356
lclavicle 8.44835e-015 -1.11319e-014
lhumerus -21.8341 2.33327 79.5282
lradius 47.1382
lwrist -0.548225
lhand -24.4335 24.8236
lfingers 7.12502
lthumb 2.05865 54.7934
rfemur -21.9674 -1.40847 25.4502
rtibia 56.4669
rfoot -22.7549 -15.0468
rtoes -8.32522
lfemur -23.7489 1.7268 -19.587
ltibia 54.614
lfoot -24.6338 1.07099
ltoes -10.3336
292
root 1.06928 16.3007 -17.1279 -0.123845 -0.0662935 -0.0837052
lowerback 14.66 -0.782901 -1.92011
upperback 2.45168 -1.19499 2.22102
thorax -5.52989 -0.534508 3.66673
lowerneck -18.2646 -3.11008 -10.2519
upperneck 11.3687 -2.74434 7.25776
head 6.69134 -1.15092 3.72667
rclavicle 2.22639e-014 -1.35174e-014
rhumerus -28.9266 -2.93637 -79.4706
rradius 46.3957
rwrist 4.34975
rhand -15.4823 18.8334
rfingers 7.12502
rthumb 10.6996 -10.8741
lclavicle 2.22639e-014 -1.35174e-014
lhumerus -21.54 4.27348 79.8006
lradius 46.129
lwrist -0.693221
lhand -24.1828 26.5058
lfingers 7.12502
lthumb 2.30084 56.4732
rfemur -22.5207 -1.28619 25.6362
rtibia 58.1208
rfoot -23.3895 -15.4869
rtoes -8.58802
lfemur -23.8354 1.68449 -19.5714
ltibia 55.7086
lfoot -25.8679 2.22775
ltoes -11.544
293
root 1.0765 16.2129 -17.1466 -0.648638 -0.589408 -0.0399591
lowerback 14.8379 -0.598663 -1.93601
upperback 2.86166 -0.96221 2.16965
thorax -5.21073 -0.431677 3.57393
lowerneck -18.2849 -3.0406 -10.1264
upperneck 11.1614 -2.65374 7.13997
head 6.61584 -1.10947 3.6751
rclavicle 4.17448e-015 -2.10712e-014
rhumerus -28.2609 -5.1829 -79.2293
rradius 44.5352
rwrist 5.33295
rhand -15.3416 17.5327
rfingers 7.12502
rthumb 10.8353 -12.1678
lclavicle 4.17448e-015 -2.10712e-014
lhumerus -21.2767 6.09014 80.0788
lradius 44.9484
lwrist -0.159264
lhand -23.564 26.7464
lfingers 7.12502
lthumb 2.89839 56.7065
rfemur -22.7085 -0.978054 25.6473
rtibia 59.3994
rfoot -24.1493 -15.6993
rtoes -6.87125
lfemur -23.4659 1.77873 -19.6124
ltibia 56.3842
lfoot -27.2541 3.23993
ltoes -9.98768
294
root 1.0766 16.1328 -17.1745 -1.2014 -0.965847 0.169866
lowerback 15.2147 -0.439711 -2.19357
upperback 3.16608 -0.804152 2.08682
thorax -5.10244 -0.356949 3.60651
lowerneck -18.3204 -2.93977 -10.0216
upperneck 11.2468 -2.53219 7.06874
head 6.63579 -1.05263 3.64901
rclavicle -1.11319e-014 1.35174e-014
rhumerus -27.8148 -7.24857 -79.0946
rradius 43.1144
rwrist 5.76694
rhand -15.0253 14.6132
rfingers 7.12502
rthumb 11.1403 -15.0711
lclavicle -1.11319e-014 1.35174e-014
lhumerus -21.1319 7.69365 80.36
lradius 43.8249
lwrist 0.679379
lhand -22.0295 28.8502
lfingers 7.12502
lthumb 4.38032 58.7849
rfemur -22.7088 -0.794442 25.4428
rtibia 60.2041
rfoot -24.8182 -15.8385
rtoes -6.11651
lfemur -22.9778 1.90937 -19.8501
ltibia 56.7837
lfoot -27.7691 3.85763
ltoes -11.113
295
root 1.07271 16.0886 -17.1886 -1.42727 -1.12643 0.598342
lowerback 15.3411 -0.351378 -2.72154
upperback 3.11429 -0.778032 2.01161
thorax -5.2212 -0.334109 3.82647
lowerneck -17.808 -2.87981 -9.96525
upperneck 11.3994 -2.48573 6.83806
head 6.59211 -1.05792 3.5705
rclavicle 1.5704e-014 -2.10712e-014
rhumerus -27.9337 -8.75914 -78.8909
rradius 41.8589
rwrist 5.59375
rhand -15.3526 12.4149
rfingers 7.12502
rthumb 10.8247 -17.2861
lclavicle 1.5704e-014 -2.10712e-014
lhumerus -21.5538 9.10323 80.637
lradius 42.9288
lwrist 1.71106
lhand -21.3331 31.2761
lfingers 7.12502
lthumb 5.05273 61.1958
rfemur -22.6656 -0.896223 24.9354
rtibia 60.4836
rfoot -25.127 -15.8071
rtoes -7.35906
lfemur -22.7541 1.95881 -20.3477
ltibia 57.0564
lfoot -28.3981 3.90206
ltoes -9.24205
296
root 1.07373 16.0813 -17.183 -1.35243 -1.13573 0.967924
lowerback 14.978 -0.32571 -3.05514
upperback 3.01769 -0.794203 1.92343
thorax -5.12077 -0.338481 3.91926
lowerneck -17.4591 -2.91708 -9.87227
upperneck 11.6987 -2.56023 6.5608
head 6.6322 -1.12237 3.45875
rclavicle 6.75868e-015 3.73715e-014
rhumerus -27.9659 -10.2617 -78.6627
rradius 40.3434
rwrist 5.27806
rhand -15.9818 11.4514
rfingers 7.12502
rthumb 10.2178 -18.2805
lclavicle 6.75868e-015 3.73715e-014
lhumerus -22.0269 10.1657 80.8858
lradius 42.156
lwrist 2.96244
lhand -21.4988 32.0375
lfingers 7.12502
lthumb 4.89271 61.961
rfemur -22.4922 -1.15219 24.4061
rtibia 60.2589
rfoot -26.0586 -15.4971
rtoes -7.05443
lfemur -22.892 1.93099 -20.8195
ltibia 57.2996
lfoot -28.7017 4.04603
ltoes -6.78725
297
root 1.07619 16.0783 -17.1758 -1.19178 -1.14365 0.931017
lowerback 14.4764 -0.350427 -2.87751
upperback 2.97734 -0.790508 1.88269
thorax -4.89373 -0.343711 3.76325
lowerneck -17.4404 -2.9596 -9.8301
upperneck 12.2528 -2.63459 6.47801
head 6.8129 -1.16976 3.42171
rclavicle -2.76311e-014 2.14687e-014
rhumerus -27.94 -11.6063 -78.5282
rradius 38.9401
rwrist 4.61781
rhand -16.2983 10.6483
rfingers 7.12502
rthumb 9.91242 -19.0983
lclavicle -2.76311e-014 2.14687e-014
lhumerus -22.199 10.9732 81.0821
lradius 40.9417
lwrist 3.97971
lhand -21.2692 30.451
lfingers 7.12502
lthumb 5.11441 60.3693
rfemur -22.2292 -1.41111 24.3437
rtibia 59.6747
rfoot -26.8959 -15.3237
rtoes -5.90247
lfemur -23.233 2.00724 -20.8188
ltibia 57.5157
lfoot -28.6152 4.1255
ltoes -6.34488
298
root 1.07514 16.0696 -17.176 -1.10552 -1.20964 0.597359
lowerback 14.2397 -0.387135 -2.47855
upperback 2.79598 -0.770618 1.95391
thorax -4.96293 -0.334943 3.60555
lowerneck -17.1969 -2.94519 -9.91418
upperneck 12.9581 -2.64749 6.5139
head 7.00363 -1.18872 3.45386
rclavicle -5.1684e-015 1.98785e-014
rhumerus -28.2331 -12.5949 -78.3101
rradius 37.6221
rwrist 3.63768
rhand -16.5227 10.3695
rfingers 7.12502
rthumb 9.69584 -19.3874
lclavicle -5.1684e-015 1.98785e-014
lhumerus -22.5326 11.5917 81.252
lradius 39.3153
lwrist 5.08352
lhand -21.0512 28.5349
lfingers 7.12502
lthumb 5.32488 58.448
rfemur -21.8447 -1.57781 24.683
rtibia 58.9267
rfoot -27.2528 -15.4152
rtoes -5.37998
lfemur -23.4762 2.193 -20.4054
ltibia 57.6281
lfoot -28.5273 3.64671
ltoes -6.3845
299
root 1.0751 16.0869 -17.1743 -1.10216 -1.2612 0.303766
lowerback 14.0309 -0.434817 -2.12483
upperback 2.65999 -0.773683 2.02687
thorax -4.99633 -0.338748 3.47962
lowerneck -16.9652 -2.91668 -10.0049
upperneck 13.6426 -2.63804 6.5482
head 7.18816 -1.19743 3.4895
rclavicle -4.77083e-015 3.97569e-016
rhumerus -28.2621 -13.4011 -78.1245
rradius 35.8975
rwrist 2.71943
rhand -17.1124 12.3338
rfingers 7.12502
rthumb 9.12687 -17.4487
lclavicle -4.77083e-015 3.97569e-016
lhumerus -22.9433 12.0457 81.443
lradius 37.9122
lwrist 5.70346
lhand -21.0359 27.7369
lfingers 7.12502
lthumb 5.33967 57.6496
rfemur -21.3704 -1.81613 24.9763
rtibia 58.1526
rfoot -27.2596 -15.4567
rtoes -5.84263
lfemur -23.4009 2.34963 -19.9935
ltibia 57.4779
lfoot -28.6021 2.91701
ltoes -6.11898
